<?xml version="1.0" encoding="UTF-8"?>
<svg xmlns="http://www.w3.org/2000/svg" width="274" height="37" viewBox="0 0 274 37" fill="none">
  <path d="M11.0452 21.1828C12.6402 21.9776 15.0327 23.0506 17.0663 24.4416C23.4462 28.8132 19.8176 35.6885 14.1156 35.6885C10.2876 35.6885 4.34631 32.6681 1.67473 23.9647C1.31586 29.4491 0.637991 33.304 0 36.1257C1.15636 35.609 2.31272 35.4898 3.4292 35.5693C6.18054 35.768 10.4471 36.9205 14.1953 36.9205C17.5448 36.9205 20.8543 36.2449 23.4462 34.9334C27.1146 33.1053 29.866 29.7272 29.866 25.5146C29.8261 18.5995 21.4524 16.0163 14.9529 13.1549C4.86468 8.74356 10.6066 1.23236 14.7934 1.23236C18.6214 1.23236 23.0474 4.213 25.719 12.9165C26.038 7.43208 26.7159 3.57713 27.3539 0.755458C26.1975 1.2721 25.081 1.39133 23.9247 1.31184C21.2132 1.11313 17.9036 0.000363528 14.1554 0.000363528C7.45652 -0.0393783 0 3.17971 0 9.49866C0 15.4202 5.66217 18.5995 11.0452 21.1828Z" fill="black"></path>
  <path d="M11.0452 21.1828C12.6402 21.9776 15.0327 23.0506 17.0663 24.4416C23.4462 28.8132 19.8176 35.6885 14.1156 35.6885C10.2876 35.6885 4.34631 32.6681 1.67473 23.9647C1.31586 29.4491 0.637991 33.304 0 36.1257C1.15636 35.609 2.31272 35.4898 3.4292 35.5693C6.18054 35.768 10.4471 36.9205 14.1953 36.9205C17.5448 36.9205 20.8543 36.2449 23.4462 34.9334C27.1146 33.1053 29.866 29.7272 29.866 25.5146C29.8261 18.5995 21.4524 16.0163 14.9529 13.1549C4.86468 8.74356 10.6066 1.23236 14.7934 1.23236C18.6214 1.23236 23.0474 4.213 25.719 12.9165C26.038 7.43208 26.7159 3.57713 27.3539 0.755458C26.1975 1.2721 25.081 1.39133 23.9247 1.31184C21.2132 1.11313 17.9036 0.000363528 14.1554 0.000363528C7.45652 -0.0393783 0 3.17971 0 9.49866C0 15.4202 5.66217 18.5995 11.0452 21.1828Z" fill="#72C726"></path>
  <path d="M44.4201 32.5489C44.3404 33.7412 44.4201 34.8937 44.779 36.1257H55.266C51.7969 29.6875 52.5944 25.3954 53.1925 21.5007C54.3489 13.9895 49.4443 10.5717 44.0214 10.5717C40.8713 10.5717 37.5218 11.7242 35.0895 13.8703C32.4977 16.0958 34.1724 19.1559 37.801 18.7585C39.7548 18.5201 42.1473 17.5265 42.4663 13.5523C42.546 12.3998 43.2239 11.8434 44.0613 11.8434C45.2176 11.8434 46.693 12.9562 47.2911 14.9433C48.0088 17.3675 47.4905 19.5931 46.7727 21.0635C45.2176 19.8315 43.3036 19.2751 41.3498 19.2751C36.525 19.2751 31.4211 22.6929 30.6634 27.9786C29.7862 33.9399 33.4945 36.9603 37.4022 36.9603C40.1137 36.9603 42.9448 35.4898 44.4201 32.5489ZM38.7978 26.8658C39.7149 23.1698 42.0675 21.1033 43.7821 21.1033C44.8587 21.1033 45.6961 21.9378 45.6961 23.766C45.0182 30.8003 42.7055 33.6617 40.8713 33.6617C39.0769 33.6617 37.7611 30.999 38.7978 26.8658Z" fill="black"></path>
  <path d="M44.4201 32.5489C44.3404 33.7412 44.4201 34.8937 44.779 36.1257H55.266C51.7969 29.6875 52.5944 25.3954 53.1925 21.5007C54.3489 13.9895 49.4443 10.5717 44.0214 10.5717C40.8713 10.5717 37.5218 11.7242 35.0895 13.8703C32.4977 16.0958 34.1724 19.1559 37.801 18.7585C39.7548 18.5201 42.1473 17.5265 42.4663 13.5523C42.546 12.3998 43.2239 11.8434 44.0613 11.8434C45.2176 11.8434 46.693 12.9562 47.2911 14.9433C48.0088 17.3675 47.4905 19.5931 46.7727 21.0635C45.2176 19.8315 43.3036 19.2751 41.3498 19.2751C36.525 19.2751 31.4211 22.6929 30.6634 27.9786C29.7862 33.9399 33.4945 36.9603 37.4022 36.9603C40.1137 36.9603 42.9448 35.4898 44.4201 32.5489ZM38.7978 26.8658C39.7149 23.1698 42.0675 21.1033 43.7821 21.1033C44.8587 21.1033 45.6961 21.9378 45.6961 23.766C45.0182 30.8003 42.7055 33.6617 40.8713 33.6617C39.0769 33.6617 37.7611 30.999 38.7978 26.8658Z" fill="#72C726"></path>
  <path d="M52.8336 11.446C56.5021 16.4932 63.0016 30.6016 63.0016 36.1257L74.2462 36.1654C69.541 28.694 75.4026 17.6457 80.6261 11.446H71.2556C73.9671 21.143 70.179 23.8455 71.6942 33.0258C68.8632 30.4426 63.4402 15.7381 63.3605 11.446H52.8336Z" fill="black"></path>
  <path d="M52.8336 11.446C56.5021 16.4932 63.0016 30.6016 63.0016 36.1257L74.2462 36.1654C69.541 28.694 75.4026 17.6457 80.6261 11.446H71.2556C73.9671 21.143 70.179 23.8455 71.6942 33.0258C68.8632 30.4426 63.4402 15.7381 63.3605 11.446H52.8336Z" fill="#72C726"></path>
  <path d="M90.6745 36.9205C98.2506 36.9205 102.437 31.1977 102.437 23.8057C102.437 16.4137 98.2506 10.7307 90.6745 10.7307C83.0983 10.7307 78.9913 16.4137 78.9913 23.8057C78.9913 31.1977 83.0983 36.9205 90.6745 36.9205ZM92.7081 12.2408C97.812 11.6447 94.7815 34.7745 88.92 35.4501C82.9787 36.1654 86.4877 12.9562 92.7081 12.2408Z" fill="black"></path>
  <path d="M90.6745 36.9205C98.2506 36.9205 102.437 31.1977 102.437 23.8057C102.437 16.4137 98.2506 10.7307 90.6745 10.7307C83.0983 10.7307 78.9913 16.4137 78.9913 23.8057C78.9913 31.1977 83.0983 36.9205 90.6745 36.9205ZM92.7081 12.2408C97.812 11.6447 94.7815 34.7745 88.92 35.4501C82.9787 36.1654 86.4877 12.9562 92.7081 12.2408Z" fill="#72C726"></path>
  <path d="M114.838 36.1257C114.719 35.6488 114.599 35.1719 114.48 34.695C113.084 26.9056 115.078 17.2483 117.669 14.7843C117.909 14.5856 118.068 14.5061 118.228 14.5061C118.626 14.5061 118.706 15.142 118.427 15.9766C117.909 17.765 119.583 19.3149 122.375 18.997C126.721 18.4803 128.555 15.4599 127.837 13.1946C127.319 11.5652 125.525 10.2935 122.375 10.6512C115.795 11.4063 113.483 19.1162 113.124 26.1902C112.805 21.5802 113.363 17.3675 114.838 11.446H104.351C106.704 21.1828 106.704 26.3889 104.351 36.1257H114.838Z" fill="black"></path>
  <path d="M114.838 36.1257C114.719 35.6488 114.599 35.1719 114.48 34.695C113.084 26.9056 115.078 17.2483 117.669 14.7843C117.909 14.5856 118.068 14.5061 118.228 14.5061C118.626 14.5061 118.706 15.142 118.427 15.9766C117.909 17.765 119.583 19.3149 122.375 18.997C126.721 18.4803 128.555 15.4599 127.837 13.1946C127.319 11.5652 125.525 10.2935 122.375 10.6512C115.795 11.4063 113.483 19.1162 113.124 26.1902C112.805 21.5802 113.363 17.3675 114.838 11.446H104.351C106.704 21.1828 106.704 26.3889 104.351 36.1257H114.838Z" fill="#72C726"></path>
  <path d="M149.489 21.1828C151.084 21.9776 153.477 23.0506 155.51 24.4416C161.89 28.8132 158.262 35.6885 152.56 35.6885C148.732 35.6885 142.79 32.6681 140.119 23.9647C139.76 29.4491 139.082 33.304 138.444 36.1257C139.6 35.609 140.757 35.4898 141.873 35.5693C144.625 35.768 148.891 36.9205 152.639 36.9205C155.989 36.9205 159.298 36.2449 161.89 34.9334C165.559 33.1053 168.31 29.7272 168.31 25.5146C168.27 18.5995 159.896 16.0163 153.397 13.1549C143.309 8.74356 149.051 1.23236 153.237 1.23236C157.065 1.23236 161.491 4.213 164.163 12.9165C164.482 7.43208 165.16 3.57713 165.798 0.755458C164.642 1.2721 163.525 1.39133 162.369 1.31184C159.657 1.11313 156.348 0.000363528 152.599 0.000363528C145.901 -0.0393783 138.444 3.17971 138.444 9.49866C138.444 15.4202 144.106 18.5995 149.489 21.1828Z" fill="black"></path>
  <path d="M149.489 21.1828C151.084 21.9776 153.477 23.0506 155.51 24.4416C161.89 28.8132 158.262 35.6885 152.56 35.6885C148.732 35.6885 142.79 32.6681 140.119 23.9647C139.76 29.4491 139.082 33.304 138.444 36.1257C139.6 35.609 140.757 35.4898 141.873 35.5693C144.625 35.768 148.891 36.9205 152.639 36.9205C155.989 36.9205 159.298 36.2449 161.89 34.9334C165.559 33.1053 168.31 29.7272 168.31 25.5146C168.27 18.5995 159.896 16.0163 153.397 13.1549C143.309 8.74356 149.051 1.23236 153.237 1.23236C157.065 1.23236 161.491 4.213 164.163 12.9165C164.482 7.43208 165.16 3.57713 165.798 0.755458C164.642 1.2721 163.525 1.39133 162.369 1.31184C159.657 1.11313 156.348 0.000363528 152.599 0.000363528C145.901 -0.0393783 138.444 3.17971 138.444 9.49866C138.444 15.4202 144.106 18.5995 149.489 21.1828Z" fill="#72C726"></path>
  <path d="M169.426 11.446C171.779 21.1828 171.779 26.3889 169.426 36.1257H179.913C178.199 21.8981 182.226 13.7113 184.459 13.7113C185.097 13.7113 185.576 14.3472 185.775 15.6189C186.572 20.9046 181.867 30.4823 183.582 36.1257H192.554C190.839 21.8584 194.866 13.7113 197.099 13.7113C197.737 13.7113 198.216 14.3472 198.415 15.6189C199.253 20.9046 194.547 30.4823 196.222 36.1257H206.749C201.127 25.6338 206.829 19.8713 204.715 14.0292C203.918 11.8037 202.283 10.6512 200.449 10.6512C197.658 10.6512 194.388 13.1549 192.514 18.4008C192.633 16.8906 192.554 15.4599 192.035 14.0292C191.238 11.8037 189.603 10.6512 187.729 10.6512C183.662 10.6512 178.398 16.1753 178.358 27.9786C177.76 22.6532 178.279 18.1226 179.913 11.446H169.426Z" fill="black"></path>
  <path d="M169.426 11.446C171.779 21.1828 171.779 26.3889 169.426 36.1257H179.913C178.199 21.8981 182.226 13.7113 184.459 13.7113C185.097 13.7113 185.576 14.3472 185.775 15.6189C186.572 20.9046 181.867 30.4823 183.582 36.1257H192.554C190.839 21.8584 194.866 13.7113 197.099 13.7113C197.737 13.7113 198.216 14.3472 198.415 15.6189C199.253 20.9046 194.547 30.4823 196.222 36.1257H206.749C201.127 25.6338 206.829 19.8713 204.715 14.0292C203.918 11.8037 202.283 10.6512 200.449 10.6512C197.658 10.6512 194.388 13.1549 192.514 18.4008C192.633 16.8906 192.554 15.4599 192.035 14.0292C191.238 11.8037 189.603 10.6512 187.729 10.6512C183.662 10.6512 178.398 16.1753 178.358 27.9786C177.76 22.6532 178.279 18.1226 179.913 11.446H169.426Z" fill="#72C726"></path>
  <path d="M221.104 32.5489C221.024 33.7412 221.104 34.8937 221.463 36.1257H231.95C228.481 29.6875 229.278 25.3954 229.876 21.5007C231.032 13.9895 226.128 10.5717 220.705 10.5717C217.555 10.5717 214.205 11.7242 211.773 13.8703C209.181 16.0958 210.856 19.1559 214.485 18.7585C216.438 18.5201 218.831 17.5265 219.15 13.5523C219.23 12.3998 219.908 11.8434 220.745 11.8434C221.901 11.8434 223.377 12.9562 223.975 14.9433C224.692 17.3675 224.174 19.5931 223.456 21.0635C221.901 19.8315 219.987 19.2751 218.033 19.2751C213.209 19.2751 208.105 22.6929 207.347 27.9786C206.47 33.9399 210.178 36.9603 214.086 36.9603C216.797 36.9603 219.628 35.4898 221.104 32.5489ZM215.481 26.8658C216.399 23.1698 218.751 21.1033 220.466 21.1033C221.542 21.1033 222.38 21.9378 222.38 23.766C221.702 30.8003 219.389 33.6617 217.555 33.6617C215.761 33.6617 214.445 30.999 215.481 26.8658Z" fill="black"></path>
  <path d="M221.104 32.5489C221.024 33.7412 221.104 34.8937 221.463 36.1257H231.95C228.481 29.6875 229.278 25.3954 229.876 21.5007C231.032 13.9895 226.128 10.5717 220.705 10.5717C217.555 10.5717 214.205 11.7242 211.773 13.8703C209.181 16.0958 210.856 19.1559 214.485 18.7585C216.438 18.5201 218.831 17.5265 219.15 13.5523C219.23 12.3998 219.908 11.8434 220.745 11.8434C221.901 11.8434 223.377 12.9562 223.975 14.9433C224.692 17.3675 224.174 19.5931 223.456 21.0635C221.901 19.8315 219.987 19.2751 218.033 19.2751C213.209 19.2751 208.105 22.6929 207.347 27.9786C206.47 33.9399 210.178 36.9603 214.086 36.9603C216.797 36.9603 219.628 35.4898 221.104 32.5489ZM215.481 26.8658C216.399 23.1698 218.751 21.1033 220.466 21.1033C221.542 21.1033 222.38 21.9378 222.38 23.766C221.702 30.8003 219.389 33.6617 217.555 33.6617C215.761 33.6617 214.445 30.999 215.481 26.8658Z" fill="#72C726"></path>
  <path d="M244.271 36.1257C244.151 35.6488 244.032 35.1719 243.912 34.695C242.516 26.9056 244.51 17.2483 247.102 14.7843C247.341 14.5856 247.501 14.5061 247.66 14.5061C248.059 14.5061 248.139 15.142 247.86 15.9766C247.341 17.765 249.016 19.3149 251.807 18.997C256.153 18.4803 257.988 15.4599 257.27 13.1946C256.751 11.5652 254.957 10.2935 251.807 10.6512C245.228 11.4063 242.915 19.1162 242.556 26.1902C242.237 21.5802 242.795 17.3675 244.271 11.446H233.784C236.136 21.1828 236.136 26.3889 233.784 36.1257H244.271Z" fill="black"></path>
  <path d="M244.271 36.1257C244.151 35.6488 244.032 35.1719 243.912 34.695C242.516 26.9056 244.51 17.2483 247.102 14.7843C247.341 14.5856 247.501 14.5061 247.66 14.5061C248.059 14.5061 248.139 15.142 247.86 15.9766C247.341 17.765 249.016 19.3149 251.807 18.997C256.153 18.4803 257.988 15.4599 257.27 13.1946C256.751 11.5652 254.957 10.2935 251.807 10.6512C245.228 11.4063 242.915 19.1162 242.556 26.1902C242.237 21.5802 242.795 17.3675 244.271 11.446H233.784C236.136 21.1828 236.136 26.3889 233.784 36.1257H244.271Z" fill="#72C726"></path>
  <path d="M273.22 31.9925C274.974 29.0516 273.618 26.3095 270.668 26.3095C269.192 26.3095 267.358 26.9851 265.285 28.6145C267.518 30.2836 268.355 34.1783 266.242 35.4898C265.843 35.7283 265.364 35.8475 264.886 35.8475C263.889 35.8475 262.773 35.3308 262.055 34.4565C258.426 30.2439 266.401 25.5146 269.91 24.9582C269.312 20.9443 269.232 16.8509 269.591 12.6383H273.738L273.539 11.446H269.711C269.99 8.94227 270.428 6.3988 271.066 3.77584H269.87C267.996 10.4525 260.659 11.446 257.988 11.446L257.708 12.6383C259.981 13.0754 261.417 14.4266 261.576 18.4803C261.696 21.5404 261.337 24.839 260.101 28.6145C258.267 34.1783 261.217 37 265.005 37C267.876 37 271.266 35.3308 273.22 31.9925Z" fill="black"></path>
  <path d="M273.22 31.9925C274.974 29.0516 273.618 26.3095 270.668 26.3095C269.192 26.3095 267.358 26.9851 265.285 28.6145C267.518 30.2836 268.355 34.1783 266.242 35.4898C265.843 35.7283 265.364 35.8475 264.886 35.8475C263.889 35.8475 262.773 35.3308 262.055 34.4565C258.426 30.2439 266.401 25.5146 269.91 24.9582C269.312 20.9443 269.232 16.8509 269.591 12.6383H273.738L273.539 11.446H269.711C269.99 8.94227 270.428 6.3988 271.066 3.77584H269.87C267.996 10.4525 260.659 11.446 257.988 11.446L257.708 12.6383C259.981 13.0754 261.417 14.4266 261.576 18.4803C261.696 21.5404 261.337 24.839 260.101 28.6145C258.267 34.1783 261.217 37 265.005 37C267.876 37 271.266 35.3308 273.22 31.9925Z" fill="#72C726"></path>
</svg>
